<svg width="22" height="24" viewBox="0 0 22 24" fill="none" xmlns="http://www.w3.org/2000/svg">
<path d="M3.66672 1C3.66672 1 1.71412 3.34312 1.63232 6.5M3.66672 23C3.66672 23 8.25005 17.5 3.66672 12C3.03148 11.2377 2.57233 10.4754 2.25265 9.72779M11.0001 1C11.0001 1 6.41672 6.5 11.0001 12C15.5834 17.5 11.0001 23 11.0001 23M18.3334 1C18.3334 1 13.7501 6.5 18.3334 12C19.9252 13.9101 20.4113 15.8203 20.3678 17.5M18.3334 23C18.3334 23 19.2293 21.9249 19.8328 20.25" stroke="#2E78CF" stroke-width="2" stroke-linecap="round" stroke-linejoin="round"/>
</svg>
