<svg width="66" height="66" viewBox="0 0 66 66" fill="none" xmlns="http://www.w3.org/2000/svg">
<path d="M6 0C2.685 0 0 2.685 0 6V24C0 27.315 2.685 30 6 30H24C27.315 30 30 27.315 30 24V6C30 2.685 27.315 0 24 0H6ZM42 0C38.685 0 36 2.685 36 6V24C36 27.315 38.685 30 42 30H60C63.315 30 66 27.315 66 24V6C66 2.685 63.315 0 60 0H42ZM6 36C2.685 36 0 38.685 0 42V60C0 63.315 2.685 66 6 66H24C27.315 66 30 63.315 30 60V42C30 38.685 27.315 36 24 36H6ZM42 36C38.685 36 36 38.685 36 42V60C36 63.315 38.685 66 42 66H60C63.315 66 66 63.315 66 60V42C66 38.685 63.315 36 60 36H42Z" fill="white"/>
</svg>
