<svg width="25" height="32" viewBox="0 0 25 32" fill="none" xmlns="http://www.w3.org/2000/svg">
<g clip-path="url(#clip0_438_12)">
<path d="M5.23986 -9.76585e-06C5.97986 0.42999 5.59986 2.03999 5.73986 2.22999C5.82986 2.35999 8.06986 0.88999 8.54986 0.69999C9.29986 0.39999 10.0299 0.34999 10.6999 -9.76585e-06H14.1699C14.5199 0.16999 16.3599 0.54999 15.6599 1.23999C15.5099 1.37999 12.3499 0.92999 11.5599 0.97999C10.3599 1.06999 6.09986 2.51999 5.76986 3.63999C5.51986 4.50999 6.95986 7.07999 7.95986 7.33999C8.70986 7.52999 9.60986 4.98999 10.5299 5.22999C10.8999 5.32999 11.9599 6.66999 12.4599 7.03999C12.8099 7.30999 16.2599 9.59999 16.4099 9.41999C16.5199 9.27999 16.1899 8.77999 16.1999 8.53999C16.2399 7.41999 17.6799 7.04999 18.2699 6.17999C18.6999 5.54999 19.3999 3.96999 18.9199 3.31999C18.6799 2.99999 16.2499 1.89999 16.9199 1.22999C17.2899 0.85999 19.0699 2.32999 19.1499 2.21999C19.2799 2.02999 18.9099 0.41999 19.6499 -0.0100098H23.3699C24.5299 1.11999 23.9299 2.46999 24.1299 3.81999C24.4299 5.79999 25.1699 6.78999 24.8599 9.29999C24.7399 10.31 24.0099 10.92 23.8799 11.79C23.5599 13.84 23.7299 15.79 23.2499 18.1C23.0299 19.16 21.3099 24.07 21.3699 24.4C21.3899 24.5 22.7499 25.11 23.0999 25.44C24.0199 26.31 25.2499 29.87 24.7299 30.99C24.6699 31.12 24.0399 31.74 23.9899 31.74H17.9099C17.5399 30.22 19.6999 30.94 19.8999 30.75C20.0599 30.59 19.5699 28.17 20.2699 28.02C21.3099 27.8 20.7199 30.58 20.8899 30.75C20.9999 30.86 23.6699 30.92 23.8499 30.34C24.0899 29.59 22.9399 26.61 22.2599 26.03C21.5199 25.41 17.1799 23.71 16.3199 23.79C16.2199 23.79 15.7699 25.2 15.4299 25.66C13.3999 28.49 11.0899 28.29 9.26986 25.37C8.95986 24.87 8.78986 23.85 8.72986 23.8C8.43986 23.54 3.59986 25.36 2.94986 25.83C2.04986 26.47 0.769857 29.39 1.06986 30.34C1.24986 30.92 3.91986 30.86 4.02986 30.75C4.19986 30.58 3.59986 27.8 4.64986 28.02C5.27986 28.15 4.95986 30.22 5.02986 30.75H16.3199C16.7499 30.75 16.7499 31.74 16.3199 31.74H0.899857C0.849857 31.74 0.219857 31.12 0.159857 30.99C-0.360143 29.87 0.879857 26.31 1.78986 25.44C2.13986 25.11 3.50986 24.5 3.51986 24.4C3.56986 24.07 1.81986 19.01 1.58986 17.9C1.13986 15.68 1.30986 13.76 0.999857 11.79C0.879857 11.02 0.219857 10.41 0.079857 9.72999C0.00985697 9.39999 -0.050143 7.74999 0.029857 7.67999C0.119857 7.58999 0.719857 7.64999 0.899857 7.91999C1.14986 8.27999 0.939857 9.23999 1.14986 9.89999C1.22986 10.15 2.45986 12.39 2.63986 12.63C3.18986 13.33 3.79986 13.32 3.62986 12.39C3.37986 11.01 1.90986 8.68999 3.29986 7.24999C4.30986 6.20999 5.66986 8.61999 6.63986 8.86999C6.99986 8.95999 7.70986 8.88999 7.69986 8.54999C7.68986 8.30999 6.28986 7.36999 6.00986 7.01999C5.78986 6.74999 4.72986 4.71999 4.72986 4.57999V0.98999C4.72986 0.83999 1.85986 0.87999 1.74986 0.98999C1.62986 1.10999 1.82986 3.62999 1.69986 4.28999C1.63986 4.55999 0.759857 6.44999 0.639857 6.44999C0.519857 6.44999 0.069857 5.92999 0.069857 5.63999C0.069857 5.16999 0.659857 4.42999 0.749857 3.83999C0.949857 2.49999 0.349857 1.13999 1.50986 0.00999023H5.22986L5.23986 -9.76585e-06ZM20.1199 0.98999C19.9899 1.11999 20.1199 4.06999 20.1199 4.58999C20.1199 4.72999 19.0599 6.76999 18.8399 7.02999C18.5699 7.34999 16.8599 8.40999 17.3899 8.92999C18.3299 9.82999 20.3299 6.02999 21.5499 7.25999C22.9399 8.66999 21.4699 11.03 21.2199 12.4C21.0299 13.46 21.7699 13.26 22.3099 12.49C23.6799 10.54 24.2099 8.22999 23.8199 5.84999C23.7199 5.19999 23.2099 4.73999 23.1099 4.07999C23.0199 3.50999 23.2099 1.09999 23.0999 0.98999C22.9899 0.87999 20.2299 0.88999 20.1199 0.98999ZM4.98986 10.17C4.78986 10.4 4.98986 15.41 4.98986 16.25C4.98986 18.93 9.05986 21.79 11.5899 22.05C17.5899 22.67 21.0899 17.09 19.7299 11.63C17.4299 11.02 15.1899 10.09 13.1999 8.77999C12.6499 8.41999 10.5099 6.44999 10.3199 6.44999C9.79986 6.44999 8.34986 9.61999 7.95986 9.79999C7.44986 10.04 5.19986 9.90999 4.97986 10.17H4.98986ZM20.8699 8.18999L17.8999 10.17C18.4399 10.09 20.3599 11 20.6399 10.81C21.1199 10.49 21.2499 8.54999 20.8699 8.18999ZM3.99986 13.89C3.93986 13.82 3.27986 14.14 2.93986 14.1C2.22986 14.01 1.95986 13.07 2.00986 14.27C2.14986 17.57 3.45986 20.98 4.49986 24.06C5.58986 23.37 7.50986 23.28 8.53986 22.82C9.48986 22.39 7.16986 21.34 6.71986 20.97C5.50986 19.94 4.29986 18.01 4.04986 16.44C3.95986 15.89 4.06986 13.99 3.98986 13.9L3.99986 13.89ZM20.3699 24.06C21.0199 22.7 23.4299 14.43 22.8499 13.64C22.7999 13.58 22.2099 14.06 21.9299 14.09C21.5899 14.14 20.9299 13.81 20.8699 13.88C20.7899 13.97 20.8999 15.88 20.8099 16.42C20.5599 17.99 19.3499 19.92 18.1399 20.95C17.6999 21.32 15.3799 22.38 16.3199 22.8C17.3499 23.26 19.2799 23.36 20.3599 24.04L20.3699 24.06ZM15.1599 22.57C15.0799 22.45 13.0799 23.09 12.3099 23.08C11.6299 23.08 9.78986 22.46 9.70986 22.57C9.63986 22.66 9.67986 24.11 9.75986 24.38C9.91986 24.92 12.0299 26.96 12.7599 26.75C12.9399 26.7 14.9499 24.75 15.0399 24.55C15.1899 24.22 15.2699 22.72 15.1699 22.57H15.1599Z" fill="#2E78CF"/>
<path d="M10.6999 12.65C11.7699 13.75 7.07992 15.21 6.72992 13.02C6.59992 12.18 8.24992 13.19 8.83992 13.16C9.31992 13.14 10.4999 12.44 10.6999 12.64V12.65Z" fill="#2E78CF"/>
<path d="M18.1399 12.65C19.2099 13.75 14.5199 15.21 14.1699 13.02C14.0399 12.18 15.6899 13.19 16.2799 13.16C16.7599 13.14 17.9399 12.44 18.1399 12.64V12.65Z" fill="#2E78CF"/>
</g>
<defs>
<clipPath id="clip0_438_12">
<rect width="24.92" height="31.75" fill="white"/>
</clipPath>
</defs>
</svg>
