<svg width="14" height="14" viewBox="0 0 14 14" fill="none" xmlns="http://www.w3.org/2000/svg">
<g opacity="0.7">
<path d="M6.41675 9.33333V2.91666C6.41675 2.76195 6.47821 2.61358 6.5876 2.50418C6.697 2.39479 6.84537 2.33333 7.00008 2.33333C7.15479 2.33333 7.30316 2.39479 7.41256 2.50418C7.52196 2.61358 7.58342 2.76195 7.58342 2.91666V9.33333H8.16675C8.32146 9.33333 8.46983 9.39479 8.57923 9.50418C8.68862 9.61358 8.75008 9.76195 8.75008 9.91666C8.75008 10.0714 8.68862 10.2197 8.57923 10.3291C8.46983 10.4385 8.32146 10.5 8.16675 10.5H7.58342V11.0833C7.58342 11.238 7.52196 11.3864 7.41256 11.4958C7.30316 11.6052 7.15479 11.6667 7.00008 11.6667C6.84537 11.6667 6.697 11.6052 6.5876 11.4958C6.47821 11.3864 6.41675 11.238 6.41675 11.0833V10.5H5.83342C5.67871 10.5 5.53033 10.4385 5.42094 10.3291C5.31154 10.2197 5.25008 10.0714 5.25008 9.91666C5.25008 9.76195 5.31154 9.61358 5.42094 9.50418C5.53033 9.39479 5.67871 9.33333 5.83342 9.33333H6.41675ZM10.5001 3.49999V2.91666C10.5001 2.76195 10.5615 2.61358 10.6709 2.50418C10.7803 2.39479 10.9287 2.33333 11.0834 2.33333C11.2381 2.33333 11.3865 2.39479 11.4959 2.50418C11.6053 2.61358 11.6667 2.76195 11.6667 2.91666V3.49999H12.2501C12.4048 3.49999 12.5532 3.56145 12.6626 3.67085C12.772 3.78025 12.8334 3.92862 12.8334 4.08333C12.8334 4.23804 12.772 4.38641 12.6626 4.49581C12.5532 4.6052 12.4048 4.66666 12.2501 4.66666H11.6667V11.0833C11.6667 11.238 11.6053 11.3864 11.4959 11.4958C11.3865 11.6052 11.2381 11.6667 11.0834 11.6667C10.9287 11.6667 10.7803 11.6052 10.6709 11.4958C10.5615 11.3864 10.5001 11.238 10.5001 11.0833V4.66666H9.91675C9.76204 4.66666 9.61367 4.6052 9.50427 4.49581C9.39487 4.38641 9.33342 4.23804 9.33342 4.08333C9.33342 3.92862 9.39487 3.78025 9.50427 3.67085C9.61367 3.56145 9.76204 3.49999 9.91675 3.49999H10.5001ZM3.50008 5.25H4.08342C4.23812 5.25 4.3865 5.31145 4.49589 5.42085C4.60529 5.53025 4.66675 5.67862 4.66675 5.83333C4.66675 5.98804 4.60529 6.13641 4.49589 6.24581C4.3865 6.3552 4.23812 6.41666 4.08342 6.41666H3.50008V11.0833C3.50008 11.238 3.43862 11.3864 3.32923 11.4958C3.21983 11.6052 3.07146 11.6667 2.91675 11.6667C2.76204 11.6667 2.61367 11.6052 2.50427 11.4958C2.39487 11.3864 2.33341 11.238 2.33341 11.0833V6.41666H1.75008C1.59537 6.41666 1.447 6.3552 1.3376 6.24581C1.22821 6.13641 1.16675 5.98804 1.16675 5.83333C1.16675 5.67862 1.22821 5.53025 1.3376 5.42085C1.447 5.31145 1.59537 5.24999 1.75008 5.25H2.33341V2.91666C2.33341 2.76195 2.39487 2.61358 2.50427 2.50418C2.61367 2.39479 2.76204 2.33333 2.91675 2.33333C3.07146 2.33333 3.21983 2.39479 3.32923 2.50418C3.43862 2.61358 3.50008 2.76195 3.50008 2.91666V5.25Z" fill="black"/>
</g>
</svg>
